<?xml version="1.0" encoding="UTF-8" standalone="no"?>
<!-- Generator: Adobe Illustrator 18.0.0, SVG Export Plug-In . SVG Version: 6.00 Build 0)  -->

<svg
   xmlns:dc="http://purl.org/dc/elements/1.1/"
   xmlns:cc="http://creativecommons.org/ns#"
   xmlns:rdf="http://www.w3.org/1999/02/22-rdf-syntax-ns#"
   xmlns:svg="http://www.w3.org/2000/svg"
   xmlns="http://www.w3.org/2000/svg"
   xmlns:sodipodi="http://sodipodi.sourceforge.net/DTD/sodipodi-0.dtd"
   xmlns:inkscape="http://www.inkscape.org/namespaces/inkscape"
   version="1.1"
   id="svg2985"
   sodipodi:docname="icCookie.svg"
   inkscape:version="0.91 r13725"
   x="0px"
   y="0px"
   viewBox="81 171 450 450"
   enable-background="new 81 171 450 450"
   xml:space="preserve"><metadata
     id="metadata15"><rdf:RDF><cc:Work
         rdf:about=""><dc:format>image/svg+xml</dc:format><dc:type
           rdf:resource="http://purl.org/dc/dcmitype/StillImage" /></cc:Work></rdf:RDF></metadata><defs
     id="defs3"><inkscape:perspective
       sodipodi:type="inkscape:persp3d"
       inkscape:vp_y="0 : 1000 : 0"
       inkscape:vp_z="744.09448 : 526.18109 : 1"
       inkscape:vp_x="0 : 526.18109 : 1"
       id="perspective2993"
       inkscape:persp3d-origin="372.04724 : 350.78739 : 1" /><inkscape:perspective
       sodipodi:type="inkscape:persp3d"
       inkscape:vp_y="0 : 1000 : 0"
       inkscape:vp_z="1 : 0.5 : 1"
       inkscape:vp_x="0 : 0.5 : 1"
       id="perspective2935"
       inkscape:persp3d-origin="0.5 : 0.33333333 : 1" /><inkscape:perspective
       sodipodi:type="inkscape:persp3d"
       inkscape:vp_y="0 : 1000 : 0"
       inkscape:vp_z="1 : 0.5 : 1"
       inkscape:vp_x="0 : 0.5 : 1"
       id="perspective3113"
       inkscape:persp3d-origin="0.5 : 0.33333333 : 1" /></defs><sodipodi:namedview
     bordercolor="#666666"
     borderopacity="1.0"
     inkscape:zoom="1.5280122"
     pagecolor="#ffffff"
     inkscape:cy="280.13118"
     showgrid="false"
     inkscape:cx="166.82932"
     id="base"
     inkscape:window-height="1416"
     inkscape:document-units="px"
     inkscape:window-width="2495"
     inkscape:window-y="24"
     inkscape:pageopacity="0.0"
     inkscape:pageshadow="2"
     inkscape:window-maximized="1"
     inkscape:window-x="1985"
     inkscape:current-layer="g9" /><g
     id="g9"><g
       id="g3407"
       transform="matrix(7.2390426,0,0,7.2390426,74.479729,165.53043)"><path
         id="path3345"
         d="M 36.9,22.7 39.4,4.1 C 37,3.5 34.6,2 32,2 29.4,2 27,3.5 24.5,4.2 22,4.8 19.2,4.7 17,6 14.8,7.3 13.4,9.8 11.6,11.6 9.8,13.4 7.3,14.8 6,17 4.7,19.2 4.8,22 4.1,24.5 3.5,27 2,29.4 2,32 c 0,2.6 1.5,5 2.2,7.5 0.6,2.5 0.5,5.3 1.8,7.5 1.3,2.2 3.8,3.6 5.6,5.4 1.8,1.8 3.1,4.3 5.4,5.6 2.2,1.3 5,1.2 7.5,1.9 2.5,0.6 4.9,2.1 7.5,2.1 2.6,0 5,-1.5 7.5,-2.2 2.5,-0.7 5.3,-0.6 7.5,-1.9 2.2,-1.3 3.6,-3.8 5.4,-5.6 1.8,-1.8 4.3,-3.1 5.6,-5.4 1.3,-2.2 1.2,-5 1.9,-7.5 C 60.5,37 62,34.6 62,32 62,29.4 59.9,23.9 59.9,23.9 l -23,-1.2"
         inkscape:connector-curvature="0"
         style="fill:#dda85f" /><path
         id="path3347"
         d="m 59.4,22.4 c -1,0.3 -2.4,0.2 -3.9,-0.4 -2.1,-0.8 -3.4,-2.5 -3.8,-4.5 -1,0.3 -3.4,0 -5,-1 C 44.3,15 43.8,10.8 43.8,10.8 41.1,10 39.1,6.8 39.4,4.1 37.2,3.5 34.4,3.6 32,3.6 c -2.4,0 -4.6,1.4 -6.8,2 -2.3,0.6 -4.9,0.5 -6.9,1.7 -2,1.2 -3.3,3.5 -4.9,5.1 -1.7,1.7 -4,2.9 -5.1,4.9 -1.2,2 -1.1,4.6 -1.7,6.9 -0.6,2.2 -2,4.4 -2,6.8 0,2.4 1.4,4.6 2,6.8 0.6,2.3 0.5,4.9 1.7,6.9 1.2,2 3.5,3.3 5.1,4.9 1.7,1.7 2.9,4 4.9,5.1 2,1.2 4.6,1.1 6.9,1.7 2.2,0.6 4.4,2 6.8,2 2.4,0 4.6,-1.4 6.8,-2 2.3,-0.6 4.9,-0.5 6.9,-1.7 2,-1.2 3.3,-3.5 4.9,-5.1 1.7,-1.7 4,-2.9 5.1,-4.9 1.2,-2 1.1,-4.6 1.7,-6.9 0.6,-2.2 3,-4 3.3,-6.4 0.8,-3.9 -1.2,-8.3 -1.3,-9"
         inkscape:connector-curvature="0"
         style="fill:#f2cb7d" /><g
         id="g3349"
         style="fill:#dda85f"><path
           id="path3351"
           d="m 50.1,10.8 -1.4,1.4 -1.3,-1.4 1.3,-1.3 z"
           inkscape:connector-curvature="0" /><path
           id="path3353"
           d="m 55.8,17.8 -0.6,0.7 -0.7,-0.7 0.7,-0.7 z"
           inkscape:connector-curvature="0" /><path
           id="path3355"
           d="m 50.8,13.2 -0.7,0.7 -0.7,-0.7 0.7,-0.7 z"
           inkscape:connector-curvature="0" /><path
           id="path3357"
           d="M 44.6,7.1 43.9,7.8 43.2,7.1 43.9,6.4 Z"
           inkscape:connector-curvature="0" /><path
           id="path3359"
           d="M 57.2,20.3 56.5,21 55.8,20.3 56.5,19.6 Z"
           inkscape:connector-curvature="0" /><path
           id="path3361"
           d="m 57.8,17.8 -0.7,0.7 -0.7,-0.7 0.7,-0.7 z"
           inkscape:connector-curvature="0" /></g><path
         id="path3363"
         d="m 11.8,20.6 c -1,1.7 0.5,4.8 2.5,5.7 2.9,1.2 4.6,1.4 6.4,-1.7 0.6,-1.1 1.4,-4 1.1,-4.7 -0.4,-1 -2.1,-3 -3.2,-3 -3.1,0.1 -6.1,2.5 -6.8,3.7"
         inkscape:connector-curvature="0"
         style="fill:#6d4934" /><path
         id="path3365"
         d="m 12.3,20.6 c -0.7,1.2 1.1,4.8 3.5,4.5 3.3,-0.4 3,-7.2 1.6,-7.2 -2.4,0 -4.6,1.8 -5.1,2.7"
         inkscape:connector-curvature="0"
         style="fill:#a37f6a" /><path
         id="path3367"
         d="m 45.2,39.1 c 1.4,-0.4 2.4,-2.9 1.8,-4.4 -0.9,-2.3 -1.8,-3.3 -4.4,-2.6 -0.9,0.3 -3,1.4 -3.2,1.9 -0.3,0.8 -0.5,2.8 0.1,3.4 1.7,1.7 4.7,2 5.7,1.7"
         inkscape:connector-curvature="0"
         style="fill:#6d4934" /><path
         id="path3369"
         d="m 43.8,36.7 c 1.1,-0.3 2.8,-3.7 1,-3.9 -3.1,-0.5 -5.5,1 -5.2,2.7 0.3,1.7 3.4,1.4 4.2,1.2"
         inkscape:connector-curvature="0"
         style="fill:#a37f6a" /><path
         id="path3371"
         d="M 24.9,44.5 C 24.6,43.3 22.4,42.4 21,43 c -2,0.8 -2.9,1.5 -2.2,3.8 0.2,0.8 1.2,2.6 1.7,2.7 0.7,0.3 2.4,0.4 2.9,-0.1 1.5,-1.4 1.7,-4 1.5,-4.9"
         inkscape:connector-curvature="0"
         style="fill:#6d4934" /><path
         id="path3373"
         d="m 23.2,43.6 c -0.2,-0.9 -4.4,0.4 -4,2 0.8,2.7 0.8,3.1 1.6,3 1.5,-0.4 2.5,-4.3 2.4,-5"
         inkscape:connector-curvature="0"
         style="fill:#a37f6a" /><path
         id="path3375"
         d="m 51.1,25.5 c -1.2,0.3 -2.1,2.5 -1.5,3.9 0.8,2 2.7,2.3 4.8,1.2 1.8,-0.9 1.9,-4.1 1.4,-4.7 -1.5,-1.5 -3.8,-0.6 -4.7,-0.4"
         inkscape:connector-curvature="0"
         style="fill:#6d4934" /><path
         id="path3377"
         d="m 50.6,26.6 c -0.6,0.7 -1.1,3.5 0.4,3.1 2.7,-0.8 4.6,-3.5 3.4,-3.9 -1.5,-0.5 -3.1,0 -3.8,0.8"
         inkscape:connector-curvature="0"
         style="fill:#a37f6a" /><path
         id="path3379"
         d="m 23.3,14.7 2.8,0 0,2.8 -2.8,0 z"
         transform="matrix(0.7071,-0.7071,0.7071,0.7071,-4.1299,22.1932)"
         inkscape:connector-curvature="0"
         style="fill:#6d4934" /><g
         id="g3381"
         style="fill:#dda85f"><path
           id="path3383"
           d="m 15.3,32.1 2.8,0 0,2.8 -2.8,0 z"
           transform="matrix(0.7069,-0.7073,0.7073,0.7069,-18.8143,21.6132)"
           inkscape:connector-curvature="0" /><path
           id="path3385"
           d="m 35.3,43.4 2.8,0 0,2.8 -2.8,0 z"
           transform="matrix(0.7071,-0.7071,0.7071,0.7071,-20.9511,39.0836)"
           inkscape:connector-curvature="0" /><path
           id="path3387"
           d="m 32.8,37.4 3.8,0 0,3.8 -3.8,0 z"
           transform="matrix(0.7071,-0.7071,0.7071,0.7071,-17.6007,36.0363)"
           inkscape:connector-curvature="0" /><path
           id="path3389"
           d="m 25.5,7.9 3.8,0 0,3.8 -3.8,0 z"
           transform="matrix(0.7071,-0.7071,0.7071,0.7071,1.0787,22.2721)"
           inkscape:connector-curvature="0" /></g><g
         id="g3391"
         style="fill:#6d4934"><path
           id="path3393"
           d="m 41.7,44.9 2.8,0 0,2.8 -2.8,0 z"
           transform="matrix(0.7071,-0.7071,0.7071,0.7071,-20.1126,44.0843)"
           inkscape:connector-curvature="0" /><path
           id="path3395"
           d="m 49.7,33.8 2.8,0 0,2.8 -2.8,0 z"
           transform="matrix(0.7071,-0.7071,0.7071,0.7071,-9.967,46.4574)"
           inkscape:connector-curvature="0" /><path
           id="path3397"
           d="m 42.1,23.9 1.4,0 0,1.4 -1.4,0 z"
           transform="matrix(0.7071,-0.7071,0.7071,0.7071,-4.8567,37.5067)"
           inkscape:connector-curvature="0" /><path
           id="path3399"
           d="m 14,37.6 1.4,0 0,1.4 -1.4,0 z"
           transform="matrix(0.7071,-0.7071,0.7071,0.7071,-22.7604,21.5789)"
           inkscape:connector-curvature="0" /></g></g></g></svg>